<?xml version="1.0" encoding="UTF-8" standalone="no"?>
<!DOCTYPE svg PUBLIC "-//W3C//DTD SVG 1.1//EN" "http://www.w3.org/Graphics/SVG/1.1/DTD/svg11.dtd">
<svg width="100%" height="100%" viewBox="0 0 7048 888" version="1.1" xmlns="http://www.w3.org/2000/svg" xmlns:xlink="http://www.w3.org/1999/xlink" xml:space="preserve" xmlns:serif="http://www.serif.com/" style="fill-rule:evenodd;clip-rule:evenodd;stroke-linejoin:round;stroke-miterlimit:2;">
    <g id="Mesa-de-trabajo1" serif:id="Mesa de trabajo1" transform="matrix(0.848748,0,0,0.956855,71.294798,129.175488)">
        <rect x="-84" y="-135" width="8304" height="927.116" style="fill:none;"/>
        <g transform="matrix(1.178207,0,0,1.04509,-619.249465,175.899856)">
            <path d="M552.302,146.551C552.302,31.784 584.271,-57.568 648.208,-121.505C712.145,-185.442 801.177,-217.41 915.305,-217.41C1032.31,-217.41 1122.461,-186.001 1185.759,-123.183C1249.057,-60.365 1280.706,27.628 1280.706,140.797C1280.706,222.956 1266.879,290.33 1239.226,342.918C1211.574,395.507 1171.613,436.426 1119.344,465.678C1067.076,494.929 1001.94,509.554 923.937,509.554C844.655,509.554 779.039,496.927 727.09,471.672C675.141,446.416 633.023,406.456 600.735,351.79C568.446,297.123 552.302,228.711 552.302,146.551ZM769.529,147.511C769.529,218.481 782.716,269.471 809.09,300.48C835.464,331.49 871.348,346.994 916.744,346.994C963.418,346.994 999.542,331.809 1025.117,301.439C1050.692,271.069 1063.479,216.563 1063.479,137.92C1063.479,71.745 1050.132,23.393 1023.439,-7.137C996.745,-37.667 960.541,-52.932 914.826,-52.932C871.029,-52.932 835.863,-37.428 809.329,-6.418C782.795,24.591 769.529,75.901 769.529,147.511Z" style="fill:white;fill-rule:nonzero;"/>
            <path d="M1921.355,497.566L1739.135,497.566L1739.135,415.087C1711.961,448.974 1684.548,473.11 1656.896,487.496C1629.243,501.882 1595.276,509.075 1554.996,509.075C1501.289,509.075 1459.17,493.011 1428.64,460.882C1398.11,428.754 1382.845,379.283 1382.845,312.468L1382.845,-11.693L1578.972,-11.693L1578.972,268.352C1578.972,300.32 1584.886,323.018 1596.715,336.445C1608.543,349.871 1625.167,356.585 1646.586,356.585C1669.923,356.585 1689.024,347.634 1703.889,329.731C1718.755,311.829 1726.187,279.7 1726.187,233.346L1726.187,-11.693L1921.355,-11.693L1921.355,497.566Z" style="fill:white;fill-rule:nonzero;"/>
            <path d="M2041.717,-11.693L2224.417,-11.693L2224.417,71.745C2242,35.621 2260.142,10.765 2278.844,-2.822C2297.545,-16.408 2320.643,-23.202 2348.135,-23.202C2376.907,-23.202 2408.396,-14.25 2442.603,3.652L2382.182,142.715C2359.165,133.125 2340.943,128.329 2327.516,128.329C2301.941,128.329 2282.12,138.879 2268.054,159.978C2247.914,189.709 2237.844,245.334 2237.844,326.854L2237.844,497.566L2041.717,497.566L2041.717,-11.693Z" style="fill:white;fill-rule:nonzero;"/>
            <path d="M2778.272,264.995L2984.949,252.048C2989.425,285.615 2998.536,311.189 3012.282,328.772C3034.66,357.224 3066.629,371.45 3108.188,371.45C3139.197,371.45 3163.094,364.177 3179.877,349.632C3196.661,335.086 3205.052,318.223 3205.052,299.041C3205.052,280.819 3197.06,264.515 3181.076,250.13C3165.092,235.744 3128.008,222.157 3069.825,209.37C2974.559,187.951 2906.626,159.499 2866.026,124.014C2825.106,88.529 2804.646,43.293 2804.646,-11.693C2804.646,-47.817 2815.116,-81.944 2836.055,-114.072C2856.995,-146.201 2888.484,-171.456 2930.523,-189.838C2972.561,-208.219 3030.184,-217.41 3103.392,-217.41C3193.224,-217.41 3261.717,-200.707 3308.87,-167.3C3356.024,-133.893 3384.076,-80.745 3393.027,-7.857L3188.269,4.132C3182.834,-27.517 3171.406,-50.535 3153.983,-64.92C3136.56,-79.306 3112.503,-86.499 3081.814,-86.499C3056.559,-86.499 3037.537,-81.145 3024.75,-70.435C3011.962,-59.726 3005.569,-46.698 3005.569,-31.354C3005.569,-20.165 3010.843,-10.094 3021.393,-1.143C3031.623,8.128 3055.919,16.759 3094.281,24.751C3189.228,45.211 3257.241,65.911 3298.321,86.85C3339.4,107.79 3369.291,133.764 3387.992,164.774C3406.694,195.783 3416.045,230.469 3416.045,268.831C3416.045,313.907 3403.577,355.466 3378.642,393.509C3353.706,431.551 3318.86,460.403 3274.104,480.063C3229.349,499.724 3172.924,509.554 3104.831,509.554C2985.269,509.554 2902.47,486.537 2856.435,440.502C2810.401,394.468 2784.346,335.965 2778.272,264.995Z" style="fill:white;fill-rule:nonzero;"/>
            <path d="M4077.794,291.369L3686.499,291.369C3690.015,322.698 3698.487,346.035 3711.914,361.38C3730.775,383.438 3755.391,394.468 3785.761,394.468C3804.942,394.468 3823.164,389.672 3840.427,380.082C3850.977,374.008 3862.326,363.298 3874.474,347.953L4066.765,365.696C4037.354,416.846 4001.868,453.529 3960.309,475.748C3918.75,497.966 3859.129,509.075 3781.445,509.075C3713.992,509.075 3660.924,499.564 3622.242,480.543C3583.56,461.522 3551.512,431.311 3526.097,389.912C3500.682,348.513 3487.974,299.841 3487.974,243.896C3487.974,164.294 3513.469,99.877 3564.459,50.646C3615.449,1.414 3685.859,-23.202 3775.691,-23.202C3848.579,-23.202 3906.123,-12.172 3948.321,9.886C3990.52,31.944 4022.648,63.913 4044.706,105.792C4066.765,147.67 4077.794,202.177 4077.794,269.311L4077.794,291.369ZM3879.269,197.861C3875.433,160.138 3865.283,133.125 3848.819,116.821C3832.355,100.517 3810.697,92.365 3783.843,92.365C3752.834,92.365 3728.058,104.673 3709.516,129.288C3697.688,144.633 3690.175,167.491 3686.978,197.861L3879.269,197.861Z" style="fill:white;fill-rule:nonzero;"/>
            <path d="M4169.384,-11.693L4352.084,-11.693L4352.084,71.745C4369.667,35.621 4387.809,10.765 4406.51,-2.822C4425.212,-16.408 4448.309,-23.202 4475.802,-23.202C4504.574,-23.202 4536.063,-14.25 4570.269,3.652L4509.849,142.715C4486.831,133.125 4468.609,128.329 4455.183,128.329C4429.608,128.329 4409.787,138.879 4395.721,159.978C4375.581,189.709 4365.511,245.334 4365.511,326.854L4365.511,497.566L4169.384,497.566L4169.384,-11.693Z" style="fill:white;fill-rule:nonzero;"/>
            <path d="M4602.398,-11.693L4805.718,-11.693L4904.5,311.03L5006.64,-11.693L5203.726,-11.693L4987.459,497.566L4814.349,497.566L4602.398,-11.693Z" style="fill:white;fill-rule:nonzero;"/>
            <path d="M5267.503,-205.422L5462.671,-205.422L5462.671,-72.593L5267.503,-72.593L5267.503,-205.422ZM5267.503,-11.693L5462.671,-11.693L5462.671,497.566L5267.503,497.566L5267.503,-11.693Z" style="fill:white;fill-rule:nonzero;"/>
            <path d="M5967.135,298.562L6152.712,319.661C6142.483,358.343 6125.699,391.83 6102.362,420.122C6079.025,448.414 6049.214,470.393 6012.93,486.057C5976.646,501.722 5930.531,509.554 5874.586,509.554C5820.559,509.554 5775.564,504.519 5739.599,494.449C5703.634,484.379 5672.705,468.075 5646.81,445.537C5620.916,422.999 5600.616,396.546 5585.91,366.175C5571.205,335.805 5563.852,295.525 5563.852,245.334C5563.852,192.906 5572.803,149.269 5590.705,114.423C5603.812,88.848 5621.715,65.911 5644.413,45.611C5667.11,25.311 5690.447,10.206 5714.424,0.295C5752.466,-15.369 5801.218,-23.202 5860.68,-23.202C5943.798,-23.202 6007.176,-8.336 6050.813,21.395C6094.45,51.125 6125.06,94.603 6142.642,151.826L5958.983,176.282C5953.229,154.544 5942.759,138.16 5927.574,127.131C5912.389,116.101 5892.009,110.587 5866.434,110.587C5834.146,110.587 5808.012,122.175 5788.031,145.353C5768.051,168.53 5758.061,203.615 5758.061,250.609C5758.061,292.488 5767.971,324.297 5787.791,346.035C5807.612,367.774 5832.867,378.643 5863.557,378.643C5889.132,378.643 5910.631,372.09 5928.053,358.982C5945.476,345.875 5958.504,325.735 5967.135,298.562Z" style="fill:white;fill-rule:nonzero;"/>
            <path d="M6807.748,291.369L6416.453,291.369C6419.97,322.698 6428.441,346.035 6441.868,361.38C6460.729,383.438 6485.345,394.468 6515.715,394.468C6534.896,394.468 6553.119,389.672 6570.382,380.082C6580.931,374.008 6592.28,363.298 6604.428,347.953L6796.719,365.696C6767.308,416.846 6731.823,453.529 6690.264,475.748C6648.705,497.966 6589.083,509.075 6511.4,509.075C6443.946,509.075 6390.878,499.564 6352.196,480.543C6313.514,461.522 6281.466,431.311 6256.051,389.912C6230.636,348.513 6217.928,299.841 6217.928,243.896C6217.928,164.294 6243.423,99.877 6294.413,50.646C6345.403,1.414 6415.814,-23.202 6505.645,-23.202C6578.534,-23.202 6636.077,-12.172 6678.275,9.886C6720.474,31.944 6752.602,63.913 6774.661,105.792C6796.719,147.67 6807.748,202.177 6807.748,269.311L6807.748,291.369ZM6609.223,197.861C6605.387,160.138 6595.237,133.125 6578.773,116.821C6562.309,100.517 6540.651,92.365 6513.797,92.365C6482.788,92.365 6458.012,104.673 6439.47,129.288C6427.642,144.633 6420.129,167.491 6416.933,197.861L6609.223,197.861Z" style="fill:white;fill-rule:nonzero;"/>
            <path d="M6862.894,356.585L7056.623,338.363C7064.615,361.38 7075.804,377.844 7090.19,387.754C7104.576,397.664 7123.757,402.62 7147.734,402.62C7173.948,402.62 7194.248,397.025 7208.634,385.836C7219.823,377.524 7225.417,367.134 7225.417,354.667C7225.417,340.601 7218.064,329.731 7203.359,322.059C7192.809,316.624 7164.837,309.911 7119.441,301.919C7051.668,290.09 7004.594,279.141 6978.22,269.071C6951.846,259.001 6929.628,241.978 6911.566,218.001C6893.504,194.025 6884.473,166.692 6884.473,136.002C6884.473,102.435 6894.223,73.503 6913.724,49.207C6933.225,24.911 6960.078,6.769 6994.285,-5.219C7028.491,-17.207 7074.366,-23.202 7131.909,-23.202C7192.649,-23.202 7237.485,-18.566 7266.417,-9.295C7295.348,-0.024 7319.485,14.362 7338.826,33.862C7358.167,53.363 7374.231,79.737 7387.018,112.984L7201.92,131.207C7197.125,114.903 7189.133,102.914 7177.944,95.242C7162.599,85.012 7144.057,79.897 7122.319,79.897C7100.26,79.897 7084.196,83.813 7074.126,91.645C7064.056,99.478 7059.021,108.988 7059.021,120.177C7059.021,132.645 7065.415,142.076 7078.202,148.47C7090.989,154.863 7118.802,160.618 7161.64,165.733C7226.536,173.085 7274.809,183.315 7306.457,196.422C7338.106,209.53 7362.322,228.231 7379.106,252.527C7395.889,276.823 7404.281,303.517 7404.281,332.608C7404.281,362.019 7395.41,390.631 7377.667,418.444C7359.925,446.257 7331.952,468.395 7293.75,484.859C7255.547,501.322 7203.519,509.554 7137.663,509.554C7044.635,509.554 6978.38,496.287 6938.899,469.754C6899.418,443.22 6874.083,405.497 6862.894,356.585Z" style="fill:white;fill-rule:nonzero;"/>
        </g>
    </g>
</svg>
