<?xml version="1.0" encoding="UTF-8" standalone="no"?>
<!DOCTYPE svg PUBLIC "-//W3C//DTD SVG 1.1//EN" "http://www.w3.org/Graphics/SVG/1.1/DTD/svg11.dtd">
<svg width="100%" height="100%" viewBox="0 0 8176 843" version="1.1" xmlns="http://www.w3.org/2000/svg" xmlns:xlink="http://www.w3.org/1999/xlink" xml:space="preserve" xmlns:serif="http://www.serif.com/" style="fill-rule:evenodd;clip-rule:evenodd;stroke-linejoin:round;stroke-miterlimit:2;">
    <g id="Mesa-de-trabajo1" serif:id="Mesa de trabajo1" transform="matrix(0.984586,0,0,0.908318,82.705202,122.622913)">
        <rect x="-84" y="-135" width="8304" height="927.116" style="fill:none;"/>
        <g transform="matrix(83.120729,0,0,90.100049,-21287.135469,-38137.655623)">
            <path d="M263.623,429.559C263.955,429.789 264.172,429.934 264.273,429.992C264.426,430.078 264.631,430.178 264.888,430.291L264.15,431.779C263.779,431.6 263.412,431.386 263.049,431.138C262.685,430.89 262.431,430.703 262.287,430.578C261.701,430.832 260.967,430.959 260.084,430.959C258.779,430.959 257.75,430.619 256.996,429.939C256.105,429.135 255.66,428.004 255.66,426.547C255.66,425.133 256.05,424.034 256.829,423.251C257.608,422.468 258.697,422.076 260.096,422.076C261.521,422.076 262.622,422.459 263.397,423.225C264.173,423.99 264.56,425.086 264.56,426.512C264.56,427.781 264.248,428.797 263.623,429.559ZM261.59,428.199C261.801,427.82 261.906,427.254 261.906,426.5C261.906,425.633 261.745,425.014 261.423,424.643C261.1,424.272 260.656,424.086 260.09,424.086C259.562,424.086 259.135,424.275 258.806,424.654C258.478,425.033 258.314,425.625 258.314,426.43C258.314,427.367 258.474,428.025 258.795,428.404C259.115,428.783 259.555,428.973 260.113,428.973C260.293,428.973 260.463,428.955 260.623,428.92C260.4,428.705 260.049,428.502 259.568,428.311L259.984,427.356C260.219,427.398 260.401,427.451 260.532,427.514C260.663,427.576 260.918,427.74 261.297,428.006C261.387,428.068 261.484,428.133 261.59,428.199Z" style="fill:white;fill-rule:nonzero;"/>
            <path d="M271.58,422.223L274.228,422.223L274.228,427.344C274.228,427.852 274.149,428.331 273.991,428.782C273.833,429.233 273.585,429.628 273.247,429.966C272.909,430.304 272.555,430.541 272.183,430.678C271.668,430.869 271.049,430.965 270.326,430.965C269.908,430.965 269.452,430.936 268.958,430.877C268.464,430.818 268.051,430.702 267.719,430.528C267.387,430.355 267.083,430.107 266.807,429.787C266.532,429.467 266.344,429.137 266.242,428.797C266.078,428.25 265.996,427.766 265.996,427.344L265.996,422.223L268.644,422.223L268.644,427.467C268.644,427.936 268.774,428.302 269.034,428.565C269.294,428.829 269.654,428.961 270.115,428.961C270.572,428.961 270.93,428.831 271.19,428.571C271.45,428.312 271.58,427.943 271.58,427.467L271.58,422.223Z" style="fill:white;fill-rule:nonzero;"/>
            <path d="M275.98,422.223L283.094,422.223L283.094,424.057L278.64,424.057L278.64,425.422L282.771,425.422L282.771,427.174L278.64,427.174L278.64,428.867L283.222,428.867L283.222,430.813L275.98,430.813L275.98,422.223Z" style="fill:white;fill-rule:nonzero;"/>
            <path d="M288.666,422.223L291.32,422.223L291.32,425.229L294.221,425.229L294.221,422.223L296.887,422.223L296.887,430.813L294.221,430.813L294.221,427.338L291.32,427.338L291.32,430.813L288.666,430.813L288.666,422.223Z" style="fill:white;fill-rule:nonzero;"/>
            <path d="M303.935,429.395L300.912,429.395L300.496,430.813L297.783,430.813L301.012,422.223L303.906,422.223L307.135,430.813L304.357,430.813L303.935,429.395ZM303.379,427.537L302.43,424.449L301.486,427.537L303.379,427.537Z" style="fill:white;fill-rule:nonzero;"/>
            <path d="M313.486,427.303L315.812,428.006C315.656,428.658 315.41,429.203 315.074,429.641C314.738,430.078 314.321,430.408 313.823,430.631C313.325,430.854 312.691,430.965 311.922,430.965C310.988,430.965 310.225,430.829 309.634,430.558C309.042,430.286 308.531,429.809 308.101,429.125C307.672,428.441 307.457,427.566 307.457,426.5C307.457,425.078 307.835,423.985 308.591,423.222C309.346,422.458 310.416,422.076 311.799,422.076C312.881,422.076 313.731,422.295 314.35,422.732C314.97,423.17 315.43,423.842 315.73,424.748L313.387,425.27C313.305,425.008 313.219,424.816 313.129,424.695C312.98,424.492 312.799,424.336 312.584,424.227C312.369,424.117 312.129,424.063 311.863,424.063C311.262,424.063 310.801,424.305 310.48,424.789C310.238,425.148 310.117,425.713 310.117,426.482C310.117,427.436 310.262,428.089 310.551,428.442C310.84,428.796 311.246,428.973 311.769,428.973C312.277,428.973 312.661,428.83 312.921,428.545C313.18,428.26 313.369,427.846 313.486,427.303Z" style="fill:white;fill-rule:nonzero;"/>
            <path d="M317.096,422.223L324.209,422.223L324.209,424.057L319.756,424.057L319.756,425.422L323.887,425.422L323.887,427.174L319.756,427.174L319.756,428.867L324.338,428.867L324.338,430.813L317.096,430.813L317.096,422.223Z" style="fill:white;fill-rule:nonzero;"/>
            <path d="M325.738,422.223L329.23,422.223L330.578,427.449L331.92,422.223L335.4,422.223L335.4,430.813L333.232,430.813L333.232,424.262L331.551,430.813L329.588,430.813L327.912,424.262L327.912,430.813L325.738,430.813L325.738,422.223Z" style="fill:white;fill-rule:nonzero;"/>
            <path d="M336.76,426.523C336.76,425.121 337.15,424.029 337.931,423.248C338.713,422.467 339.801,422.076 341.195,422.076C342.625,422.076 343.726,422.46 344.5,423.228C345.273,423.995 345.66,425.07 345.66,426.453C345.66,427.457 345.491,428.28 345.153,428.923C344.815,429.565 344.327,430.065 343.688,430.423C343.05,430.78 342.254,430.959 341.301,430.959C340.332,430.959 339.53,430.805 338.895,430.496C338.261,430.188 337.746,429.699 337.351,429.031C336.957,428.363 336.76,427.527 336.76,426.523ZM339.414,426.535C339.414,427.402 339.575,428.025 339.897,428.404C340.22,428.783 340.658,428.973 341.213,428.973C341.783,428.973 342.224,428.787 342.537,428.416C342.849,428.045 343.006,427.379 343.006,426.418C343.006,425.609 342.843,425.019 342.516,424.646C342.19,424.273 341.748,424.086 341.189,424.086C340.654,424.086 340.224,424.275 339.9,424.654C339.576,425.033 339.414,425.66 339.414,426.535Z" style="fill:white;fill-rule:nonzero;"/>
            <path d="M346.627,427.971L349.152,427.813C349.207,428.223 349.318,428.535 349.486,428.75C349.76,429.098 350.15,429.272 350.658,429.272C351.037,429.272 351.329,429.183 351.534,429.005C351.739,428.827 351.842,428.621 351.842,428.387C351.842,428.164 351.744,427.965 351.549,427.789C351.353,427.613 350.9,427.447 350.189,427.291C349.025,427.029 348.195,426.682 347.699,426.248C347.199,425.814 346.949,425.262 346.949,424.59C346.949,424.148 347.077,423.731 347.333,423.339C347.589,422.946 347.973,422.638 348.487,422.413C349.001,422.189 349.705,422.076 350.599,422.076C351.697,422.076 352.534,422.28 353.11,422.689C353.686,423.097 354.029,423.746 354.138,424.637L351.637,424.783C351.57,424.397 351.43,424.115 351.218,423.939C351.005,423.764 350.711,423.676 350.336,423.676C350.027,423.676 349.795,423.741 349.638,423.872C349.482,424.003 349.404,424.162 349.404,424.35C349.404,424.486 349.469,424.609 349.597,424.719C349.722,424.832 350.019,424.938 350.488,425.035C351.648,425.285 352.479,425.538 352.981,425.794C353.483,426.05 353.848,426.367 354.077,426.746C354.305,427.125 354.42,427.549 354.42,428.018C354.42,428.568 354.267,429.076 353.963,429.541C353.658,430.006 353.232,430.358 352.685,430.599C352.138,430.839 351.449,430.959 350.617,430.959C349.156,430.959 348.144,430.678 347.582,430.115C347.019,429.553 346.701,428.838 346.627,427.971Z" style="fill:white;fill-rule:nonzero;"/>
        </g>
    </g>
</svg>
